<svg xmlns="http://www.w3.org/2000/svg" viewBox="0 0 1200 470">
<defs>
<linearGradient id="bg" x1="0" y1="0" x2="1" y2="1"><stop stop-color="#F3FBFE"/><stop offset=".5" stop-color="#FFFFFF"/><stop offset="1" stop-color="#E1F3F9"/></linearGradient>
<linearGradient id="py" x1="0" y1="0" x2="1" y2="1"><stop stop-color="#3776AB"/><stop offset="1" stop-color="#FFD43B"/></linearGradient>
<linearGradient id="cpp" x1="0" y1="0" x2="1" y2="1"><stop stop-color="#004482"/><stop offset="1" stop-color="#659AD2"/></linearGradient>
<linearGradient id="ts" x1="0" y1="0" x2="1" y2="1"><stop stop-color="#3178C6"/><stop offset="1" stop-color="#235A97"/></linearGradient>
<filter id="s"><feDropShadow dx="0" dy="12" stdDeviation="16" flood-color="#123D53" flood-opacity=".16"/></filter>
</defs>
<rect width="1200" height="470" rx="30" fill="url(#bg)"/>
<circle cx="1020" cy="70" r="125" fill="#BDEAF7" opacity=".55"/><circle cx="150" cy="420" r="155" fill="#D8F3FA" opacity=".8"/>
<text x="70" y="68" font-family="Arial,sans-serif" font-size="16" font-weight="700" letter-spacing="3" fill="#102F43">CURRENT STACK</text>
<path d="M70 85h88" stroke="#12A6D0" stroke-width="4" stroke-linecap="round"/>
<g filter="url(#s)">
<g transform="rotate(-2 290 250)">
<rect x="90" y="125" width="360" height="245" rx="28" fill="#FFFFFF" stroke="#3776AB" stroke-width="2"/>
<rect x="115" y="150" width="72" height="72" rx="18" fill="url(#py)"/>
<path d="M128 190c0-15 8-23 23-23h20v10h-19c-6 0-10 4-10 11v3h29v9h-29v10h-14z" fill="#FFFFFF"/>
<path d="M174 179c0 15-8 23-23 23h-20v-10h19c6 0 10-4 10-11v-3h-29v-9h29v-10h14z" fill="#FFE873" transform="translate(0 29)"/>
<text x="115" y="270" font-family="Arial,sans-serif" font-size="28" font-weight="800" fill="#09283F">PYTHON</text>
<text x="115" y="300" font-family="monospace" font-size="12" fill="#527386">automation · experiments</text>
<path d="M115 335h235" stroke="#D8EAF1" stroke-width="8" stroke-linecap="round"/><path d="M115 335h165" stroke="#3776AB" stroke-width="8" stroke-linecap="round"/>
</g>
<g transform="rotate(1.5 600 250)">
<rect x="420" y="125" width="360" height="245" rx="28" fill="#FFFFFF" stroke="#659AD2" stroke-width="2"/>
<rect x="445" y="150" width="72" height="72" rx="18" fill="url(#cpp)"/>
<text x="481" y="199" text-anchor="middle" font-family="Arial,sans-serif" font-size="22" font-weight="900" fill="#FFFFFF">C++</text>
<text x="445" y="270" font-family="Arial,sans-serif" font-size="28" font-weight="800" fill="#09283F">C++</text>
<text x="445" y="300" font-family="monospace" font-size="12" fill="#527386">logic · systems</text>
<path d="M445 335h235" stroke="#D8EAF1" stroke-width="8" stroke-linecap="round"/><path d="M445 335h185" stroke="#659AD2" stroke-width="8" stroke-linecap="round"/>
</g>
<g transform="rotate(-1 910 250)">
<rect x="750" y="125" width="360" height="245" rx="28" fill="#FFFFFF" stroke="#3178C6" stroke-width="2"/>
<rect x="775" y="150" width="72" height="72" rx="18" fill="url(#ts)"/>
<text x="811" y="199" text-anchor="middle" font-family="Arial,sans-serif" font-size="25" font-weight="900" fill="#FFFFFF">TS</text>
<text x="775" y="270" font-family="Arial,sans-serif" font-size="28" font-weight="800" fill="#09283F">TYPESCRIPT</text>
<text x="775" y="300" font-family="monospace" font-size="12" fill="#527386">web · interfaces</text>
<path d="M775 335h235" stroke="#D8EAF1" stroke-width="8" stroke-linecap="round"/><path d="M775 335h150" stroke="#3178C6" stroke-width="8" stroke-linecap="round"/>
</g></g>
</svg>