<svg xmlns="http://www.w3.org/2000/svg" viewBox="0 0 1200 500">
<defs><filter id="shadow"><feDropShadow dx="0" dy="12" stdDeviation="10" flood-color="#09263A" flood-opacity=".18"/></filter></defs>
<rect width="1200" height="500" rx="30" fill="#FFFFFF"/>
<path d="M0 410L150 360L300 400L470 340L650 395L835 335L1015 380L1200 325V500H0Z" fill="#DCEFF5"/>
<path d="M0 0H1200V92L1040 120L890 70L720 110L560 64L390 105L210 58L0 90Z" fill="#F3FAFC"/>
<text x="70" y="58" font-family="DejaVu Sans,sans-serif" font-size="15" font-weight="800" letter-spacing="4" fill="#102F43">LANGUAGE PALETTE</text>
<path d="M70 78H220" stroke="#19A9D5" stroke-width="4" stroke-linecap="round"/><path d="M1085 78H1140" stroke="#C9574A" stroke-width="4" stroke-linecap="round"/>
<g opacity=".35"><path d="M550 40L625 40L770 460L695 460Z" fill="#05080A"/></g>
<path d="M560 35L625 35L752 462L687 462Z" fill="#05080A"><animate attributeName="opacity" values=".92;1;.92" dur="2.8s" repeatCount="indefinite"/></path>
<path d="M563 70L618 70" stroke="#FFFFFF" stroke-width="3" opacity=".85"/>
<path d="M666 405l18 9-13 9-16-8zM645 431l11 5-7 7-10-5zM785 102l15 6-9 10-13-6z" fill="#05080A"><animateTransform attributeName="transform" type="translate" values="0 0;8 12;-3 26;0 0" dur="3.4s" repeatCount="indefinite"/></path>
<g filter="url(#shadow)"><g transform="rotate(-5 280 280)"><animateTransform attributeName="transform" type="translate" values="0 0;6 -10;-3 13;0 0" dur="3.8s" begin="0s" repeatCount="indefinite" additive="sum"/><rect x="65" y="125" width="385" height="280" rx="28" fill="#FFFFFF" stroke="#3776AB" stroke-width="3"/><rect x="98" y="157" width="88" height="88" rx="20" fill="#3776AB"/><g transform="translate(117 174) scale(.48)"><path fill="#5A9FD4" d="M63.391 1.988c-4.222.02-8.252.379-11.8 1.007-10.45 1.846-12.346 5.71-12.346 12.837v9.411h24.693v3.137H29.977c-7.176 0-13.46 4.313-15.426 12.521-2.268 9.405-2.368 15.275 0 25.096 1.755 7.311 5.947 12.519 13.124 12.519h8.491V67.234c0-8.151 7.051-15.34 15.426-15.34h24.665c6.866 0 12.346-5.654 12.346-12.548V15.833c0-6.693-5.646-11.72-12.346-12.837-4.244-.706-8.645-1.027-12.866-1.008zM50.037 9.557c2.55 0 4.634 2.117 4.634 4.721 0 2.593-2.083 4.69-4.634 4.69-2.56 0-4.633-2.097-4.633-4.69-.001-2.604 2.073-4.721 4.633-4.721z" transform="translate(0 10.26)"/><path fill="#FFD43B" d="M91.682 28.38v10.966c0 8.5-7.208 15.655-15.426 15.655H51.591c-6.756 0-12.346 5.783-12.346 12.549v23.515c0 6.691 5.818 10.628 12.346 12.547 7.816 2.297 15.312 2.713 24.665 0 6.216-1.801 12.346-5.423 12.346-12.547v-9.412H63.938v-3.138h37.012c7.176 0 9.852-5.005 12.348-12.519 2.578-7.735 2.467-15.174 0-25.096-1.774-7.145-5.161-12.521-12.348-12.521h-9.268zM77.809 87.927c2.561 0 4.634 2.097 4.634 4.692 0 2.602-2.074 4.719-4.634 4.719-2.55 0-4.633-2.117-4.633-4.719 0-2.595 2.083-4.692 4.633-4.692z" transform="translate(0 10.26)"/></g><text x="98" y="298" font-family="DejaVu Sans,sans-serif" font-size="29" font-weight="900" fill="#09283F">PYTHON</text><text x="98" y="328" font-family="DejaVu Sans Mono,monospace" font-size="12" fill="#527386">automation · experiments</text><path d="M98 372H380" stroke="#D8EAF1" stroke-width="9" stroke-linecap="round"/><path d="M98 372H275" stroke="#3776AB" stroke-width="9" stroke-linecap="round"/></g></g>
<g filter="url(#shadow)"><g transform="rotate(3 540 278)"><animateTransform attributeName="transform" type="translate" values="0 0;-7 12;5 -9;0 0" dur="3.8s" begin=".55s" repeatCount="indefinite" additive="sum"/><rect x="390" y="115" width="360" height="280" rx="28" fill="#FFFFFF" stroke="#00599C" stroke-width="3"/><rect x="420" y="145" width="88" height="88" rx="20" fill="#004482"/><g transform="translate(434 158) scale(.53)"><path fill="#00599c" d="M118.766 95.82c.89-1.543 1.441-3.28 1.441-4.843V36.78c0-1.558-.55-3.297-1.441-4.84l-55.32 31.94Z"/><path fill="#659ad2" d="M118.766 31.941c-.891-1.546-2.121-2.894-3.473-3.671L68.359 1.172c-2.703-1.563-7.129-1.563-9.832 0L11.594 28.27C8.89 29.828 6.68 33.66 6.68 36.78v54.196c0 1.562.55 3.3 1.441 4.843L63.445 63.88Z"/><path fill="#fff" d="M63.445 26.035c-20.867 0-37.843 16.977-37.843 37.844s16.976 37.844 37.843 37.844c13.465 0 26.024-7.247 32.77-18.91L79.84 73.335c-3.38 5.84-9.66 9.465-16.395 9.465-10.433 0-18.922-8.488-18.922-18.922 0-10.434 8.49-18.922 18.922-18.922 6.73 0 13.017 3.629 16.39 9.465l16.38-9.477c-6.75-11.664-19.305-18.91-32.77-18.91zM92.88 57.57v4.207h-4.207v4.203h4.207v4.207h4.203V65.98h4.203v-4.203h-4.203V57.57H92.88z"/></g><text x="420" y="288" font-family="DejaVu Sans,sans-serif" font-size="29" font-weight="900" fill="#09283F">C++</text><text x="420" y="318" font-family="DejaVu Sans Mono,monospace" font-size="12" fill="#527386">logic · systems</text><path d="M420 362H700" stroke="#D8EAF1" stroke-width="9" stroke-linecap="round"/><path d="M420 362H612" stroke="#00599C" stroke-width="9" stroke-linecap="round"/></g></g>
<g filter="url(#shadow)"><g transform="rotate(-4 930 275)"><animateTransform attributeName="transform" type="translate" values="0 0;7 10;-5 -12;0 0" dur="3.8s" begin="1.05s" repeatCount="indefinite" additive="sum"/><rect x="780" y="130" width="350" height="280" rx="28" fill="#FFFFFF" stroke="#007ACC" stroke-width="3"/><rect x="810" y="160" width="88" height="88" rx="20" fill="#007ACC"/><g transform="translate(823 173) scale(.53)"><path fill="#fff" d="M1.5 63.91v62.5h125v-125H1.5zm100.73-5a15.56 15.56 0 017.82 4.5 20.58 20.58 0 013 4c0 .16-5.4 3.81-8.69 5.85-.12.08-.6-.44-1.13-1.23a7 7 0 00-5.87-3.53c-3.79-.26-6.23 1.73-6.21 5a4.58 4.58 0 00.54 2.34c.83 4 0 10.46-1.8 15.24-2 5.2-6.9 8.73-13.83 9.9a38.32 38.32 0 01-9.52-.1 23 23 0 01-12.72-6.63c-1.15-1.27-3.39-4.58-3.25-4.82a9 9 0 011.15-.73L82 101l3.59-2.08.75 1.11a16.78 16.78 0 004.74 4.54c4 2.1 9.46 1.81 12.16-.62a5.43 5.43 0 00.69-6.92c-1-1.39-3-2.56-8.59-5-6.45-2.78-9.23-4.5-11.77-7.24a16.48 16.48 0 01-3.43-6.25 25 25 0 01-.22-8c1.33-6.23 6-10.58 12.82-11.87a31.66 31.66 0 019.49.26zm-29.34 5.24v5.12H56.66v46.23H45.15V69.26H28.88v-5a49 49 0 01.12-5.17C29.08 59 39 59 51 59z"/></g><text x="810" y="294" font-family="DejaVu Sans,sans-serif" font-size="29" font-weight="900" fill="#09283F">TYPESCRIPT</text><text x="810" y="324" font-family="DejaVu Sans Mono,monospace" font-size="12" fill="#527386">web · interfaces</text><path d="M810 368H1075" stroke="#D8EAF1" stroke-width="9" stroke-linecap="round"/><path d="M810 368H982" stroke="#007ACC" stroke-width="9" stroke-linecap="round"/></g></g>
<g fill="#05080A"><circle cx="520" cy="120" r="4"><animate attributeName="cy" values="120;140;175;120" dur="3.6s" repeatCount="indefinite"/></circle><circle cx="740" cy="360" r="3"><animate attributeName="cy" values="360;382;415;360" dur="3.6s" begin=".8s" repeatCount="indefinite"/></circle><circle cx="600" cy="95" r="2.5"><animate attributeName="cy" values="95;112;145;95" dur="3.6s" begin="1.4s" repeatCount="indefinite"/></circle></g>
</svg>