<svg xmlns="http://www.w3.org/2000/svg" viewBox="0 0 1400 520">
<defs>
<linearGradient id="bg" x1="0" y1="0" x2="1" y2="1"><stop stop-color="#fffaf2"/><stop offset=".48" stop-color="#eef6f4"/><stop offset="1" stop-color="#e9e1f4"/></linearGradient>
<linearGradient id="red" x1="0" y1="0" x2="1" y2="1"><stop stop-color="#ff4964"/><stop offset="1" stop-color="#d91f48"/></linearGradient>
<linearGradient id="violet" x1="0" y1="0" x2="1" y2="1"><stop stop-color="#8d6ac4"/><stop offset="1" stop-color="#5e3d8e"/></linearGradient>
<filter id="shadow"><feDropShadow dx="0" dy="18" stdDeviation="20" flood-color="#33243d" flood-opacity=".15"/></filter>
<clipPath id="card"><rect x="330" y="75" width="790" height="350" rx="34"/></clipPath>
</defs>
<rect width="1400" height="520" fill="url(#bg)"/>
<circle cx="1130" cy="90" r="170" fill="#ff3151" opacity=".07"/>
<circle cx="220" cy="430" r="190" fill="#76539f" opacity=".08"/>
<path d="M0 390C210 335 320 420 520 370S900 305 1400 350V520H0Z" fill="#dcebe7"/>
<path d="M0 455C240 385 400 470 620 420S1050 380 1400 420V520H0Z" fill="#f4e6e7"/>
<g filter="url(#shadow)">
<rect x="330" y="75" width="790" height="350" rx="34" fill="#ffffff" fill-opacity=".78" stroke="#ffffff" stroke-width="2"/>
<path d="M365 105H1085" stroke="#17151b" stroke-opacity=".08"/>
<circle cx="390" cy="105" r="5" fill="#ff4964"/><circle cx="408" cy="105" r="5" fill="#e7c66b"/><circle cx="426" cy="105" r="5" fill="#76539f"/>
<g clip-path="url(#card)">
<path d="M820 50L1160 50L980 460L640 460Z" fill="url(#violet)" opacity=".12"/>
<path d="M980 50L1160 50L1040 460L860 460Z" fill="url(#red)" opacity=".14"/>
<path d="M355 350L1100 180" stroke="#ff3151" stroke-width="2" opacity=".45"/>
</g>
<text x="385" y="148" font-family="Georgia,serif" font-size="66" font-weight="700" fill="#17151b">Himanshu</text>
<path d="M389 162 C500 178 620 166 690 155" fill="none" stroke="#ff4964" stroke-width="3" stroke-linecap="round"/>
<circle cx="700" cy="154" r="5" fill="#76539f"/>
<text x="387" y="112" font-family="monospace" font-size="11" letter-spacing="3" fill="#76539f">HB / 01</text>
<text x="388" y="198" font-family="Arial,sans-serif" font-size="16" fill="#6f6675" letter-spacing="2">PYTHON  ·  C++  ·  TYPESCRIPT</text>
<rect x="388" y="235" width="510" height="62" rx="14" fill="#17151b"/>
<rect x="388" y="235" width="510" height="62" rx="14" fill="none" stroke="#ffffff" stroke-opacity=".08"/>
<text x="414" y="275" font-family="monospace" font-size="19" fill="#f7f2e9">$ <tspan fill="#ff7188">_</tspan></text>
<text x="438" y="275" font-family="monospace" font-size="19" fill="#f7f2e9">
<tspan>building things that work</tspan><animate attributeName="opacity" values="0;1;1;1;1;0" dur="4s" repeatCount="indefinite"/></text>
<text x="438" y="275" font-family="monospace" font-size="19" fill="#f7f2e9"><tspan>turning ideas into systems</tspan><animate attributeName="opacity" values="0;0;0;1;1;0" dur="6s" repeatCount="indefinite"/></text>
<text x="438" y="275" font-family="monospace" font-size="19" fill="#f7f2e9"><tspan>python • cpp • linux • web</tspan><animate attributeName="opacity" values="0;0;0;0;1;0" dur="8s" repeatCount="indefinite"/></text>
</text>
<text x="388" y="350" font-family="Arial,sans-serif" font-size="15" fill="#514957">robotics / software / experiments</text>
<text x="935" y="350" font-family="monospace" font-size="11" fill="#8d6ac4">01 — 03</text>
<text x="388" y="318" font-family="monospace" font-size="13" fill="#76539f"><tspan>exploring Python, C++, Linux</tspan><animate attributeName="opacity" values="0;0;1;1;0" dur="7s" repeatCount="indefinite"/></text>
<rect x="388" y="378" width="160" height="4" rx="2" fill="#e7e1e7"/>
<rect x="388" y="378" width="88" height="4" rx="2" fill="#ff3151"/>
<rect x="480" y="378" width="68" height="4" rx="2" fill="#76539f"/>
</g>
<g font-family="monospace" font-size="11" fill="#4f4656"><text x="55" y="58">HB / PROFILE</text><text x="1255" y="470">2026</text></g>
<path d="M55 78h90M55 78v22M1345 440h-90M1345 440v-22" stroke="#8b7f90" opacity=".5"/>
</svg>