<svg xmlns="http://www.w3.org/2000/svg" viewBox="0 0 1400 430">
<defs>
<linearGradient id="sky" x2="0" y2="1"><stop stop-color="#9ec5f5"/><stop offset=".52" stop-color="#f6c6d9"/><stop offset="1" stop-color="#ffe7c2"/></linearGradient>
<linearGradient id="mist"><stop stop-color="#fff" stop-opacity=".75"/><stop offset="1" stop-color="#d9d5ff" stop-opacity=".15"/></linearGradient>
<radialGradient id="sun"><stop stop-color="#fff8df"/><stop offset="1" stop-color="#ffd6c8" stop-opacity="0"/></radialGradient>
<filter id="soft"><feGaussianBlur stdDeviation="18"/></filter>
</defs>
<rect width="1400" height="430" rx="28" fill="url(#sky)"/>
<circle cx="700" cy="245" r="150" fill="url(#sun)" filter="url(#soft)"/>
<g opacity=".55" fill="#fff">
<path d="M70 100c70-45 150-45 220 0-75-12-145 3-220 0Z"/>
<path d="M1010 115c95-50 190-45 280 12-95-18-180-4-280-12Z"/>
</g>
<g fill="none" stroke="#8e83bd" stroke-opacity=".2" stroke-width="2">
<path d="M0 285Q220 245 440 292T880 286T1400 270"/>
<path d="M0 315Q220 275 440 322T880 316T1400 300"/>
</g>
<path d="M0 325l145-58 110 38 145-82 125 73 145-53 140 68 155-83 130 61 145-74 105 53v130H0Z" fill="#7b78a8" opacity=".35"/>
<path d="M0 350l190-55 150 37 140-60 180 63 140-48 165 52 160-57 145 53 130-45v160H0Z" fill="#4f587d" opacity=".35"/>
<rect y="352" width="1400" height="78" fill="url(#mist)"/>
<g fill="#53607d" opacity=".55">
<path d="M120 354h35v-45h22v45h18v-66h25v66h42v-34h18v34h30v-52h26v52h42v-25h18v25Z"/>
<path d="M1030 354h30v-55h20v55h25v-34h18v34h33v-70h26v70h25v-44h20v44h38v-28h18v28h36v-61h25v61Z"/>
</g>
<g fill="#f08fb3" opacity=".75">
<circle cx="180" cy="86" r="5"/><circle cx="1220" cy="72" r="4"/><circle cx="930" cy="55" r="3"/><circle cx="480" cy="120" r="4"/>
</g>
<g fill="#fff" opacity=".7">
<circle cx="265" cy="65" r="2"/><circle cx="1090" cy="92" r="2"/><circle cx="770" cy="85" r="2"/>
</g>
<text x="72" y="78" font-family="ui-sans-serif,system-ui" font-size="14" letter-spacing="5" fill="#475569" opacity=".75">WELCOME</text>
<text x="72" y="112" font-family="ui-sans-serif,system-ui" font-size="24" font-weight="600" fill="#334155">a quiet place for interesting things</text>
</svg>