<svg xmlns="http://www.w3.org/2000/svg" viewBox="0 0 1400 520" role="img" aria-labelledby="title desc"><title id="title">Anime-inspired maker scene</title><desc id="desc">A cinematic anime-inspired coding workspace at blue hour with a person, laptop, sketches and warm window light.</desc><defs><linearGradient id="sky" x2="0" y2="1"><stop stop-color="#789bd4"/><stop offset=".48" stop-color="#a9b1e0"/><stop offset=".78" stop-color="#efb8b0"/><stop offset="1" stop-color="#f7d7ac"/></linearGradient><linearGradient id="room" x2="0" y2="1"><stop stop-color="#1d2942"/><stop offset="1" stop-color="#101727"/></linearGradient><linearGradient id="hair" x2="1" y2="1"><stop stop-color="#172033"/><stop offset=".6" stop-color="#263452"/><stop offset="1" stop-color="#43516f"/></linearGradient><linearGradient id="hood" x2="1" y2="1"><stop stop-color="#303d5c"/><stop offset="1" stop-color="#182238"/></linearGradient><radialGradient id="sun"><stop stop-color="#fff8db" stop-opacity=".95"/><stop offset=".28" stop-color="#ffdcb8" stop-opacity=".55"/><stop offset="1" stop-color="#ffdcb8" stop-opacity="0"/></radialGradient><filter id="glow"><feGaussianBlur stdDeviation="24"/></filter><filter id="grain"><feTurbulence type="fractalNoise" baseFrequency=".8" numOctaves="2" stitchTiles="stitch" result="n"/><feColorMatrix in="n" type="saturate" values="0" result="g"/><feComponentTransfer in="g"><feFuncA type="table" tableValues="0 .035"/></feComponentTransfer><feBlend in="SourceGraphic" in2="g" mode="screen"/></filter></defs><rect width="1400" height="520" rx="32" fill="url(#room)"/><rect x="640" y="0" width="760" height="390" fill="url(#sky)"/><circle cx="1020" cy="208" r="160" fill="url(#sun)" filter="url(#glow)"/><path d="M640 290l118-58 100 42 118-78 115 74 120-58 109 63v115H640Z" fill="#64749d" opacity=".45"/><path d="M640 323l130-53 120 38 125-61 115 63 113-47 122 56v80H640Z" fill="#485777" opacity=".52"/><g fill="#52617f" opacity=".63"><path d="M662 314h32v-34h14v34h26v-58h18v58h31v-41h15v41h28v-30h13v30h34v-53h18v53h25v-66h20v66h30v-38h16v38h31v-52h18v52h29v-35h16v35h32v-61h20v61h31v-44h14v44h32v-55h18v55h35v-31h14v31h28v-67h19v67h30v-43h15v43h34v-29h13v29h30v70H662Z"/></g><rect x="0" y="0" width="1400" height="520" fill="#fff" opacity=".02" filter="url(#grain)"/><path d="M0 405Q245 374 510 410T1010 410T1400 392" fill="none" stroke="#7f89aa" stroke-opacity=".34" stroke-width="3"/><path d="M0 432Q240 402 510 437T1010 438T1400 420" fill="none" stroke="#b89bb8" stroke-opacity=".22" stroke-width="2"/><g opacity=".72" stroke="#a8b6db" stroke-width="2"><path d="M90 86h170l30 30h76"/><path d="M1120 52h105l27 27h81"/><path d="M1230 79v44"/></g><g fill="#f8e9d3" opacity=".8"><circle cx="300" cy="96" r="3"/><circle cx="1140" cy="75" r="3"/><circle cx="1240" cy="155" r="2"/></g><g transform="translate(285 235)"><path d="M0 178Q22 60 122 28Q216 0 280 64L305 178Z" fill="url(#hood)" stroke="#0f1628" stroke-width="5"/><path d="M58 83Q78 12 162 6Q245 2 259 78L236 127Q178 96 111 127Z" fill="url(#hair)" stroke="#121a2b" stroke-width="5"/><path d="M100 79Q118 41 164 35Q211 34 229 79L208 112Q169 92 124 112Z" fill="#d9b6a6" opacity=".72"/><path d="M166 58q14-11 28 1" stroke="#283451" stroke-width="4"/><circle cx="193" cy="77" r="3.5" fill="#182238"/><path d="M210 88q14 2 19 10" fill="none" stroke="#9d6f73" stroke-width="3" stroke-linecap="round"/><path d="M71 104q84 31 166 4" fill="none" stroke="#7382a4" stroke-opacity=".55" stroke-width="5"/><path d="M98 128L52 215M214 127l54 88" stroke="#1c2840" stroke-width="30" stroke-linecap="round"/></g><g transform="translate(490 360)"><path d="M0 103L30 0H470L505 103Z" fill="#30384e" stroke="#161d2f" stroke-width="5"/><rect x="65" y="18" width="350" height="78" rx="8" fill="#10192b"/><g stroke-linecap="round" stroke-width="6"><path d="M89 39h118" stroke="#73d1cb"/><path d="M89 56h170" stroke="#aaa0e5"/><path d="M89 73h142" stroke="#f0b59e"/></g></g><g transform="translate(82 335) rotate(-4)"><rect width="195" height="122" rx="8" fill="#efe5d4" stroke="#c8baa8" stroke-width="3"/><path d="M23 87l50-58 32 36 34-44 35 48" fill="none" stroke="#697999" stroke-width="4"/><circle cx="73" cy="29" r="4" fill="#d98e8e"/><path d="M24 99h136" stroke="#939ab0" stroke-opacity=".5" stroke-width="3"/></g><g transform="translate(1160 350)"><path d="M0 100Q40 36 78 100" fill="none" stroke="#729b7f" stroke-width="8"/><path d="M35 100Q72 12 123 90" fill="none" stroke="#7ea68b" stroke-width="8"/><path d="M18 98h95l-8 50H28Z" fill="#c49b8d"/></g><g fill="#fff" opacity=".75"><circle cx="840" cy="83" r="2.5"/><circle cx="915" cy="54" r="3"/><circle cx="1065" cy="92" r="2.5"/><circle cx="1310" cy="76" r="2"/></g><path d="M640 0v390" stroke="#e9d1cb" stroke-opacity=".18" stroke-width="6"/><path d="M1390 0v390" stroke="#e9d1cb" stroke-opacity=".18" stroke-width="6"/></svg>